<mxfile host="app.diagrams.net" agent="Mozilla/5.0 (Macintosh; Intel Mac OS X 10_15_7) AppleWebKit/537.36 (KHTML, like Gecko) Chrome/135.0.0.0 Safari/537.36" version="26.2.8">
  <diagram name="Page-1" id="rzBEN1SAtDUT0HIzxQVw">
    <mxGraphModel dx="1188" dy="-1499" grid="1" gridSize="10" guides="1" tooltips="1" connect="1" arrows="1" fold="1" page="1" pageScale="1" pageWidth="850" pageHeight="1100" math="0" shadow="0">
      <root>
        <mxCell id="0" />
        <mxCell id="1" parent="0" />
        <mxCell id="juekC3_RBMMEX_5VpmDY-1" value="ProjectController" style="swimlane;fontStyle=1;align=center;verticalAlign=top;childLayout=stackLayout;horizontal=1;startSize=32.92307692307692;horizontalStack=0;resizeParent=1;resizeParentMax=0;resizeLast=0;collapsible=0;marginBottom=0;" vertex="1" parent="1">
          <mxGeometry x="61" y="2630" width="226" height="205.9230769230769" as="geometry" />
        </mxCell>
        <mxCell id="juekC3_RBMMEX_5VpmDY-2" style="line;strokeWidth=1;fillColor=none;align=left;verticalAlign=middle;spacingTop=-1;spacingLeft=3;spacingRight=3;rotatable=0;labelPosition=right;points=[];portConstraint=eastwest;strokeColor=inherit;" vertex="1" parent="juekC3_RBMMEX_5VpmDY-1">
          <mxGeometry y="32.92307692307692" width="226" height="8" as="geometry" />
        </mxCell>
        <mxCell id="juekC3_RBMMEX_5VpmDY-3" value="+createProject()" style="text;strokeColor=none;fillColor=none;align=left;verticalAlign=top;spacingLeft=4;spacingRight=4;overflow=hidden;rotatable=0;points=[[0,0.5],[1,0.5]];portConstraint=eastwest;" vertex="1" parent="juekC3_RBMMEX_5VpmDY-1">
          <mxGeometry y="40.92307692307692" width="226" height="33" as="geometry" />
        </mxCell>
        <mxCell id="juekC3_RBMMEX_5VpmDY-4" value="+getProjectById()" style="text;strokeColor=none;fillColor=none;align=left;verticalAlign=top;spacingLeft=4;spacingRight=4;overflow=hidden;rotatable=0;points=[[0,0.5],[1,0.5]];portConstraint=eastwest;" vertex="1" parent="juekC3_RBMMEX_5VpmDY-1">
          <mxGeometry y="73.92307692307692" width="226" height="33" as="geometry" />
        </mxCell>
        <mxCell id="juekC3_RBMMEX_5VpmDY-5" value="+updateProject()" style="text;strokeColor=none;fillColor=none;align=left;verticalAlign=top;spacingLeft=4;spacingRight=4;overflow=hidden;rotatable=0;points=[[0,0.5],[1,0.5]];portConstraint=eastwest;" vertex="1" parent="juekC3_RBMMEX_5VpmDY-1">
          <mxGeometry y="106.92307692307692" width="226" height="33" as="geometry" />
        </mxCell>
        <mxCell id="juekC3_RBMMEX_5VpmDY-6" value="+deleteProject()" style="text;strokeColor=none;fillColor=none;align=left;verticalAlign=top;spacingLeft=4;spacingRight=4;overflow=hidden;rotatable=0;points=[[0,0.5],[1,0.5]];portConstraint=eastwest;" vertex="1" parent="juekC3_RBMMEX_5VpmDY-1">
          <mxGeometry y="139.9230769230769" width="226" height="33" as="geometry" />
        </mxCell>
        <mxCell id="juekC3_RBMMEX_5VpmDY-7" value="+generateMusicAI()" style="text;strokeColor=none;fillColor=none;align=left;verticalAlign=top;spacingLeft=4;spacingRight=4;overflow=hidden;rotatable=0;points=[[0,0.5],[1,0.5]];portConstraint=eastwest;" vertex="1" parent="juekC3_RBMMEX_5VpmDY-1">
          <mxGeometry y="172.9230769230769" width="226" height="33" as="geometry" />
        </mxCell>
        <mxCell id="juekC3_RBMMEX_5VpmDY-8" value="AuthController" style="swimlane;fontStyle=1;align=center;verticalAlign=top;childLayout=stackLayout;horizontal=1;startSize=36.888888888888886;horizontalStack=0;resizeParent=1;resizeParentMax=0;resizeLast=0;collapsible=0;marginBottom=0;" vertex="1" parent="1">
          <mxGeometry x="337" y="2654" width="187" height="155.88888888888889" as="geometry" />
        </mxCell>
        <mxCell id="juekC3_RBMMEX_5VpmDY-9" style="line;strokeWidth=1;fillColor=none;align=left;verticalAlign=middle;spacingTop=-1;spacingLeft=3;spacingRight=3;rotatable=0;labelPosition=right;points=[];portConstraint=eastwest;strokeColor=inherit;" vertex="1" parent="juekC3_RBMMEX_5VpmDY-8">
          <mxGeometry y="36.888888888888886" width="187" height="8" as="geometry" />
        </mxCell>
        <mxCell id="juekC3_RBMMEX_5VpmDY-10" value="+registerUser()" style="text;strokeColor=none;fillColor=none;align=left;verticalAlign=top;spacingLeft=4;spacingRight=4;overflow=hidden;rotatable=0;points=[[0,0.5],[1,0.5]];portConstraint=eastwest;" vertex="1" parent="juekC3_RBMMEX_5VpmDY-8">
          <mxGeometry y="44.888888888888886" width="187" height="37" as="geometry" />
        </mxCell>
        <mxCell id="juekC3_RBMMEX_5VpmDY-11" value="+loginUser()" style="text;strokeColor=none;fillColor=none;align=left;verticalAlign=top;spacingLeft=4;spacingRight=4;overflow=hidden;rotatable=0;points=[[0,0.5],[1,0.5]];portConstraint=eastwest;" vertex="1" parent="juekC3_RBMMEX_5VpmDY-8">
          <mxGeometry y="81.88888888888889" width="187" height="37" as="geometry" />
        </mxCell>
        <mxCell id="juekC3_RBMMEX_5VpmDY-12" value="+logoutUser()" style="text;strokeColor=none;fillColor=none;align=left;verticalAlign=top;spacingLeft=4;spacingRight=4;overflow=hidden;rotatable=0;points=[[0,0.5],[1,0.5]];portConstraint=eastwest;" vertex="1" parent="juekC3_RBMMEX_5VpmDY-8">
          <mxGeometry y="118.88888888888889" width="187" height="37" as="geometry" />
        </mxCell>
        <mxCell id="juekC3_RBMMEX_5VpmDY-13" value="MusicAIService" style="swimlane;fontStyle=1;align=center;verticalAlign=top;childLayout=stackLayout;horizontal=1;startSize=36.888888888888886;horizontalStack=0;resizeParent=1;resizeParentMax=0;resizeLast=0;collapsible=0;marginBottom=0;" vertex="1" parent="1">
          <mxGeometry x="50" y="2902" width="248" height="155.88888888888889" as="geometry" />
        </mxCell>
        <mxCell id="juekC3_RBMMEX_5VpmDY-14" style="line;strokeWidth=1;fillColor=none;align=left;verticalAlign=middle;spacingTop=-1;spacingLeft=3;spacingRight=3;rotatable=0;labelPosition=right;points=[];portConstraint=eastwest;strokeColor=inherit;" vertex="1" parent="juekC3_RBMMEX_5VpmDY-13">
          <mxGeometry y="36.888888888888886" width="248" height="8" as="geometry" />
        </mxCell>
        <mxCell id="juekC3_RBMMEX_5VpmDY-15" value="+generateMelody()" style="text;strokeColor=none;fillColor=none;align=left;verticalAlign=top;spacingLeft=4;spacingRight=4;overflow=hidden;rotatable=0;points=[[0,0.5],[1,0.5]];portConstraint=eastwest;" vertex="1" parent="juekC3_RBMMEX_5VpmDY-13">
          <mxGeometry y="44.888888888888886" width="248" height="37" as="geometry" />
        </mxCell>
        <mxCell id="juekC3_RBMMEX_5VpmDY-16" value="+generateLyrics()" style="text;strokeColor=none;fillColor=none;align=left;verticalAlign=top;spacingLeft=4;spacingRight=4;overflow=hidden;rotatable=0;points=[[0,0.5],[1,0.5]];portConstraint=eastwest;" vertex="1" parent="juekC3_RBMMEX_5VpmDY-13">
          <mxGeometry y="81.88888888888889" width="248" height="37" as="geometry" />
        </mxCell>
        <mxCell id="juekC3_RBMMEX_5VpmDY-17" value="+enhanceComposition()" style="text;strokeColor=none;fillColor=none;align=left;verticalAlign=top;spacingLeft=4;spacingRight=4;overflow=hidden;rotatable=0;points=[[0,0.5],[1,0.5]];portConstraint=eastwest;" vertex="1" parent="juekC3_RBMMEX_5VpmDY-13">
          <mxGeometry y="118.88888888888889" width="248" height="37" as="geometry" />
        </mxCell>
        <mxCell id="juekC3_RBMMEX_5VpmDY-18" value="" style="curved=1;startArrow=none;endArrow=open;endSize=12;exitX=0.5;exitY=1;entryX=0.5;entryY=0;rounded=0;" edge="1" parent="1" source="juekC3_RBMMEX_5VpmDY-1" target="juekC3_RBMMEX_5VpmDY-13">
          <mxGeometry relative="1" as="geometry">
            <Array as="points" />
          </mxGeometry>
        </mxCell>
        <mxCell id="juekC3_RBMMEX_5VpmDY-19" value="HomeScreen" style="swimlane;fontStyle=1;align=center;verticalAlign=top;childLayout=stackLayout;horizontal=1;startSize=40.57142857142857;horizontalStack=0;resizeParent=1;resizeParentMax=0;resizeLast=0;collapsible=0;marginBottom=0;" vertex="1" parent="1">
          <mxGeometry x="390" y="3400" width="216" height="130.57142857142856" as="geometry" />
        </mxCell>
        <mxCell id="juekC3_RBMMEX_5VpmDY-20" style="line;strokeWidth=1;fillColor=none;align=left;verticalAlign=middle;spacingTop=-1;spacingLeft=3;spacingRight=3;rotatable=0;labelPosition=right;points=[];portConstraint=eastwest;strokeColor=inherit;" vertex="1" parent="juekC3_RBMMEX_5VpmDY-19">
          <mxGeometry y="40.57142857142857" width="216" height="8" as="geometry" />
        </mxCell>
        <mxCell id="juekC3_RBMMEX_5VpmDY-21" value="+displayProjects()" style="text;strokeColor=none;fillColor=none;align=left;verticalAlign=top;spacingLeft=4;spacingRight=4;overflow=hidden;rotatable=0;points=[[0,0.5],[1,0.5]];portConstraint=eastwest;" vertex="1" parent="juekC3_RBMMEX_5VpmDY-19">
          <mxGeometry y="48.57142857142857" width="216" height="41" as="geometry" />
        </mxCell>
        <mxCell id="juekC3_RBMMEX_5VpmDY-22" value="+navigateToCreate()" style="text;strokeColor=none;fillColor=none;align=left;verticalAlign=top;spacingLeft=4;spacingRight=4;overflow=hidden;rotatable=0;points=[[0,0.5],[1,0.5]];portConstraint=eastwest;" vertex="1" parent="juekC3_RBMMEX_5VpmDY-19">
          <mxGeometry y="89.57142857142857" width="216" height="41" as="geometry" />
        </mxCell>
        <mxCell id="juekC3_RBMMEX_5VpmDY-23" value="CreateProjectScreen" style="swimlane;fontStyle=1;align=center;verticalAlign=top;childLayout=stackLayout;horizontal=1;startSize=34.54545454545455;horizontalStack=0;resizeParent=1;resizeParentMax=0;resizeLast=0;collapsible=0;marginBottom=0;" vertex="1" parent="1">
          <mxGeometry x="249" y="3600" width="233" height="182.54545454545456" as="geometry" />
        </mxCell>
        <mxCell id="juekC3_RBMMEX_5VpmDY-24" style="line;strokeWidth=1;fillColor=none;align=left;verticalAlign=middle;spacingTop=-1;spacingLeft=3;spacingRight=3;rotatable=0;labelPosition=right;points=[];portConstraint=eastwest;strokeColor=inherit;" vertex="1" parent="juekC3_RBMMEX_5VpmDY-23">
          <mxGeometry y="34.54545454545455" width="233" height="8" as="geometry" />
        </mxCell>
        <mxCell id="juekC3_RBMMEX_5VpmDY-25" value="+inputGenre()" style="text;strokeColor=none;fillColor=none;align=left;verticalAlign=top;spacingLeft=4;spacingRight=4;overflow=hidden;rotatable=0;points=[[0,0.5],[1,0.5]];portConstraint=eastwest;" vertex="1" parent="juekC3_RBMMEX_5VpmDY-23">
          <mxGeometry y="42.54545454545455" width="233" height="35" as="geometry" />
        </mxCell>
        <mxCell id="juekC3_RBMMEX_5VpmDY-26" value="+inputMood()" style="text;strokeColor=none;fillColor=none;align=left;verticalAlign=top;spacingLeft=4;spacingRight=4;overflow=hidden;rotatable=0;points=[[0,0.5],[1,0.5]];portConstraint=eastwest;" vertex="1" parent="juekC3_RBMMEX_5VpmDY-23">
          <mxGeometry y="77.54545454545455" width="233" height="35" as="geometry" />
        </mxCell>
        <mxCell id="juekC3_RBMMEX_5VpmDY-27" value="+generateWithAI()" style="text;strokeColor=none;fillColor=none;align=left;verticalAlign=top;spacingLeft=4;spacingRight=4;overflow=hidden;rotatable=0;points=[[0,0.5],[1,0.5]];portConstraint=eastwest;" vertex="1" parent="juekC3_RBMMEX_5VpmDY-23">
          <mxGeometry y="112.54545454545455" width="233" height="35" as="geometry" />
        </mxCell>
        <mxCell id="juekC3_RBMMEX_5VpmDY-28" value="+saveProject()" style="text;strokeColor=none;fillColor=none;align=left;verticalAlign=top;spacingLeft=4;spacingRight=4;overflow=hidden;rotatable=0;points=[[0,0.5],[1,0.5]];portConstraint=eastwest;" vertex="1" parent="juekC3_RBMMEX_5VpmDY-23">
          <mxGeometry y="147.54545454545456" width="233" height="35" as="geometry" />
        </mxCell>
        <mxCell id="juekC3_RBMMEX_5VpmDY-29" value="MusicTheoryScreen" style="swimlane;fontStyle=1;align=center;verticalAlign=top;childLayout=stackLayout;horizontal=1;startSize=40.57142857142857;horizontalStack=0;resizeParent=1;resizeParentMax=0;resizeLast=0;collapsible=0;marginBottom=0;" vertex="1" parent="1">
          <mxGeometry x="532" y="3624" width="198" height="130.57142857142856" as="geometry" />
        </mxCell>
        <mxCell id="juekC3_RBMMEX_5VpmDY-30" style="line;strokeWidth=1;fillColor=none;align=left;verticalAlign=middle;spacingTop=-1;spacingLeft=3;spacingRight=3;rotatable=0;labelPosition=right;points=[];portConstraint=eastwest;strokeColor=inherit;" vertex="1" parent="juekC3_RBMMEX_5VpmDY-29">
          <mxGeometry y="40.57142857142857" width="198" height="8" as="geometry" />
        </mxCell>
        <mxCell id="juekC3_RBMMEX_5VpmDY-31" value="+startLesson()" style="text;strokeColor=none;fillColor=none;align=left;verticalAlign=top;spacingLeft=4;spacingRight=4;overflow=hidden;rotatable=0;points=[[0,0.5],[1,0.5]];portConstraint=eastwest;" vertex="1" parent="juekC3_RBMMEX_5VpmDY-29">
          <mxGeometry y="48.57142857142857" width="198" height="41" as="geometry" />
        </mxCell>
        <mxCell id="juekC3_RBMMEX_5VpmDY-32" value="+takeQuiz()" style="text;strokeColor=none;fillColor=none;align=left;verticalAlign=top;spacingLeft=4;spacingRight=4;overflow=hidden;rotatable=0;points=[[0,0.5],[1,0.5]];portConstraint=eastwest;" vertex="1" parent="juekC3_RBMMEX_5VpmDY-29">
          <mxGeometry y="89.57142857142857" width="198" height="41" as="geometry" />
        </mxCell>
        <mxCell id="juekC3_RBMMEX_5VpmDY-33" value="" style="curved=1;startArrow=none;endArrow=open;endSize=12;exitX=0.04;exitY=1;entryX=0.5;entryY=0;rounded=0;" edge="1" parent="1" source="juekC3_RBMMEX_5VpmDY-19" target="juekC3_RBMMEX_5VpmDY-23">
          <mxGeometry relative="1" as="geometry">
            <Array as="points">
              <mxPoint x="365" y="3575" />
            </Array>
          </mxGeometry>
        </mxCell>
        <mxCell id="juekC3_RBMMEX_5VpmDY-34" value="" style="curved=1;startArrow=none;endArrow=open;endSize=12;exitX=0.96;exitY=1;entryX=0.5;entryY=0;rounded=0;" edge="1" parent="1" source="juekC3_RBMMEX_5VpmDY-19" target="juekC3_RBMMEX_5VpmDY-29">
          <mxGeometry relative="1" as="geometry">
            <Array as="points">
              <mxPoint x="631" y="3575" />
            </Array>
          </mxGeometry>
        </mxCell>
      </root>
    </mxGraphModel>
  </diagram>
</mxfile>
